<svg xmlns="http://www.w3.org/2000/svg" xmlns:xlink="http://www.w3.org/1999/xlink" width="40" zoomAndPan="magnify" viewBox="0 0 30 30.000001" height="40" preserveAspectRatio="xMidYMid meet" version="1.0"><defs><clipPath id="8a9435ff12"><path d="M 9.765625 8 L 19.929688 8 L 19.929688 18.144531 L 9.765625 18.144531 Z M 9.765625 8 " clip-rule="nonzero"/></clipPath><clipPath id="3496137465"><path d="M 10 8 L 19.929688 8 L 19.929688 18.144531 L 10 18.144531 Z M 10 8 " clip-rule="nonzero"/></clipPath><clipPath id="6ef63373b5"><path d="M 16 6.53125 L 19.929688 6.53125 L 19.929688 11 L 16 11 Z M 16 6.53125 " clip-rule="nonzero"/></clipPath><clipPath id="5b827babcd"><path d="M 9.765625 16 L 11 16 L 11 18 L 9.765625 18 Z M 9.765625 16 " clip-rule="nonzero"/></clipPath><clipPath id="4d473f3fb1"><path d="M 16 6.53125 L 19 6.53125 L 19 8 L 16 8 Z M 16 6.53125 " clip-rule="nonzero"/></clipPath></defs><g clip-path="url(#8a9435ff12)"><path fill="#000000" d="M 18.1875 8.566406 C 18.480469 8.566406 20.222656 8.273438 20.222656 10.886719 C 20.222656 13.5 16.445312 18.144531 11.222656 18.144531 C 10.640625 18.144531 10.058594 17.855469 10.058594 17.855469 L 9.769531 16.984375 C 9.769531 16.984375 10.058594 15.824219 11.800781 14.953125 C 13.542969 14.082031 14.78125 13.351562 15.519531 12.609375 C 16.101562 12.03125 17.027344 10.886719 17.027344 10.015625 C 17.027344 9.449219 17.609375 8.855469 17.609375 8.855469 " fill-opacity="1" fill-rule="nonzero"/></g><g clip-path="url(#3496137465)"><path fill="#000000" d="M 10.351562 17.273438 C 10.351562 17.273438 12.382812 16.695312 14.125 15.824219 C 15.867188 14.953125 19.640625 12.339844 18.480469 8.566406 C 18.480469 8.566406 20.222656 8.273438 20.222656 10.886719 C 20.222656 13.5 16.445312 18.144531 11.222656 18.144531 C 10.640625 18.144531 10.058594 17.855469 10.058594 17.855469 Z M 10.351562 17.273438 " fill-opacity="1" fill-rule="nonzero"/></g><g clip-path="url(#6ef63373b5)"><path fill="#000000" d="M 19.949219 9.417969 C 19.40625 8.25 18.1875 8.855469 18.1875 6.53125 C 17.316406 6.53125 16.738281 7.113281 16.738281 7.113281 C 16.738281 7.113281 17.609375 7.984375 17.609375 8.855469 C 18.1875 8.855469 18.65625 8.808594 18.707031 10.234375 C 19.101562 8.570312 19.949219 9.417969 19.949219 9.417969 Z M 19.949219 9.417969 " fill-opacity="1" fill-rule="nonzero"/></g><path fill="#000000" d="M 17.027344 10.015625 C 17.027344 10.015625 17.007812 9.488281 17.609375 8.855469 C 18.207031 8.21875 18.777344 8.738281 18.777344 8.738281 L 18.707031 10.234375 C 18.707031 10.234375 18.453125 9.289062 18.054688 9.265625 C 17.214844 9.214844 17.027344 10.015625 17.027344 10.015625 Z M 17.027344 10.015625 " fill-opacity="1" fill-rule="nonzero"/><g clip-path="url(#5b827babcd)"><path fill="#000000" d="M 9.769531 17.273438 L 10.058594 17.855469 L 10.351562 17.855469 L 10.351562 17.273438 L 9.769531 16.984375 Z M 9.769531 17.273438 " fill-opacity="1" fill-rule="nonzero"/></g><g clip-path="url(#4d473f3fb1)"><path fill="#000000" d="M 18.1875 6.53125 C 17.316406 6.53125 16.738281 7.113281 16.738281 7.113281 L 17.609375 7.113281 Z M 18.1875 6.53125 " fill-opacity="1" fill-rule="nonzero"/></g><path stroke-linecap="butt" transform="matrix(0.451673, 0.568143, -0.568143, 0.451673, 15.567027, 13.5668)" fill="none" stroke-linejoin="miter" d="M -0.0011046 0.502124 L 2.557442 0.501028 " stroke="#000000" stroke-width="1" stroke-opacity="1" stroke-miterlimit="4"/></svg>