<svg xmlns="http://www.w3.org/2000/svg" xmlns:xlink="http://www.w3.org/1999/xlink" width="40" zoomAndPan="magnify" viewBox="0 0 30 30.000001" height="40" preserveAspectRatio="xMidYMid meet" version="1.0"><defs><clipPath id="f0f25711a8"><path d="M 4.980469 7 L 25 7 L 25 25.902344 L 4.980469 25.902344 Z M 4.980469 7 " clip-rule="nonzero"/></clipPath><clipPath id="5046c9732b"><path d="M 5 7 L 25 7 L 25 25.902344 L 5 25.902344 Z M 5 7 " clip-rule="nonzero"/></clipPath><clipPath id="ec5f8456e1"><path d="M 18 3.402344 L 25 3.402344 L 25 11 L 18 11 Z M 18 3.402344 " clip-rule="nonzero"/></clipPath><clipPath id="eb0a59ac99"><path d="M 4.980469 23 L 7 23 L 7 25.902344 L 4.980469 25.902344 Z M 4.980469 23 " clip-rule="nonzero"/></clipPath><clipPath id="095c978ea9"><path d="M 18 3.402344 L 22 3.402344 L 22 5 L 18 5 Z M 18 3.402344 " clip-rule="nonzero"/></clipPath></defs><g clip-path="url(#f0f25711a8)"><path fill="#000000" d="M 21.109375 7.289062 C 21.664062 7.289062 25 6.734375 25 11.734375 C 25 16.738281 17.773438 25.628906 7.773438 25.628906 C 6.660156 25.628906 5.550781 25.074219 5.550781 25.074219 L 4.992188 23.40625 C 4.992188 23.40625 5.550781 21.183594 8.882812 19.515625 C 12.21875 17.847656 14.585938 16.453125 16.003906 15.035156 C 17.113281 13.925781 18.886719 11.734375 18.886719 10.070312 C 18.886719 8.980469 19.996094 7.847656 19.996094 7.847656 " fill-opacity="1" fill-rule="nonzero"/></g><g clip-path="url(#5046c9732b)"><path fill="#000000" d="M 6.105469 23.960938 C 6.105469 23.960938 9.996094 22.851562 13.328125 21.183594 C 16.664062 19.515625 23.886719 14.515625 21.664062 7.289062 C 21.664062 7.289062 25 6.734375 25 11.734375 C 25 16.738281 17.773438 25.628906 7.773438 25.628906 C 6.660156 25.628906 5.550781 25.074219 5.550781 25.074219 Z M 6.105469 23.960938 " fill-opacity="1" fill-rule="nonzero"/></g><g clip-path="url(#ec5f8456e1)"><path fill="#000000" d="M 24.476562 8.921875 C 23.4375 6.6875 21.109375 7.847656 21.109375 3.402344 C 19.441406 3.402344 18.332031 4.511719 18.332031 4.511719 C 18.332031 4.511719 19.996094 6.179688 19.996094 7.847656 C 21.109375 7.847656 22.003906 7.757812 22.105469 10.484375 C 22.855469 7.300781 24.476562 8.921875 24.476562 8.921875 Z M 24.476562 8.921875 " fill-opacity="1" fill-rule="nonzero"/></g><path fill="#000000" d="M 18.886719 10.070312 C 18.886719 10.070312 18.851562 9.0625 19.996094 7.847656 C 21.144531 6.628906 22.238281 7.621094 22.238281 7.621094 L 22.105469 10.484375 C 22.105469 10.484375 21.617188 8.679688 20.851562 8.632812 C 19.242188 8.535156 18.886719 10.070312 18.886719 10.070312 Z M 18.886719 10.070312 " fill-opacity="1" fill-rule="nonzero"/><g clip-path="url(#eb0a59ac99)"><path fill="#000000" d="M 4.992188 23.960938 L 5.550781 25.074219 L 6.105469 25.074219 L 6.105469 23.960938 L 4.992188 23.40625 Z M 4.992188 23.960938 " fill-opacity="1" fill-rule="nonzero"/></g><g clip-path="url(#095c978ea9)"><path fill="#000000" d="M 21.109375 3.402344 C 19.441406 3.402344 18.332031 4.511719 18.332031 4.511719 L 19.996094 4.511719 Z M 21.109375 3.402344 " fill-opacity="1" fill-rule="nonzero"/></g><path stroke-linecap="butt" transform="matrix(0.451673, 0.568143, -0.568143, 0.451673, 16.111876, 16.843524)" fill="none" stroke-linejoin="miter" d="M 0.0011535 1.002263 L 4.892144 0.999082 " stroke="#000000" stroke-width="2" stroke-opacity="1" stroke-miterlimit="4"/></svg>